<?xml version="1.0" encoding="iso-8859-1"?>
<!-- Uploaded to: SVG Repo, www.svgrepo.com, Generator: SVG Repo Mixer Tools -->
<svg height="800px" width="800px" version="1.1" id="Capa_1" xmlns="http://www.w3.org/2000/svg" xmlns:xlink="http://www.w3.org/1999/xlink" 
	 viewBox="0 0 55 55" xml:space="preserve">
<g>
	<path style="fill:#010002;" d="M4.93,23.079c0.391,0,0.708,0.317,0.708,0.708s-0.317,0.708-0.708,0.708s-0.708-0.317-0.708-0.708
		S4.539,23.079,4.93,23.079z M52.176,25.989c0.186-0.436,0.207-0.831,0.04-0.912c-0.168-0.081-0.47,0.192-0.697,0.616
		c-2.536-0.934-5.415,0.193-6.612,2.679l9.565,4.612C55.716,30.405,54.685,27.318,52.176,25.989z M39.458,20.119
		c2.14,0,3.874,1.734,3.874,3.874s-1.734,3.874-3.874,3.874s-3.874-1.734-3.874-3.874S37.319,20.119,39.458,20.119z M4.008,18.12
		c0.509,0,0.922,0.413,0.922,0.922s-0.413,0.922-0.922,0.922s-0.922-0.413-0.922-0.922S3.499,18.12,4.008,18.12z M1.315,21.611
		c0.242,0,0.438,0.196,0.438,0.438s-0.196,0.438-0.438,0.438s-0.438-0.196-0.438-0.438S1.073,21.611,1.315,21.611z M54.356,34.166
		l-10.279-4.959l0.316-0.657l10.279,4.959L54.356,34.166z M0.877,30.483c0.484,0,0.877,0.393,0.877,0.877s-0.393,0.877-0.877,0.877
		S0,31.844,0,31.36S0.393,30.483,0.877,30.483z M47.276,33.209c-3.41-1.373-6.816-2.746-10.229-4.119
		c-0.754-0.834-1.887-1.336-3.281-1.063c-6.735,2.292-14.332,1.886-16.721,0.527c-2.505-2.029-4.515-4.619-6.206-7.383
		C9.609,19.161,6.441,21,7.677,23.02c1.758,2.875,3.845,5.584,6.375,7.798c-0.907-0.149-1.815-0.36-2.724-0.645
		c-3.162-0.986-5.995-2.876-8.671-4.776c-1.931-1.37-3.758,1.808-1.849,3.163c3.132,2.224,6.399,4.162,10.086,5.312
		c2.049,0.644,19.435,3.864,24.997,0.746c0,0,0.994-0.506,1.639-1.41c2.924,1.18,5.85,2.354,8.771,3.531
		C48.492,37.622,49.438,34.079,47.276,33.209z"/>
</g>
</svg>